<?xml version="1.0" encoding="UTF-8"?> <svg xmlns="http://www.w3.org/2000/svg" width="20" height="20" viewBox="0 0 20 20" fill="none"> <path d="M5.01172 11.266H5.82279V15.2769H6.60052V11.266H7.41159V10.5883H5.01172V11.266ZM9.11149 14.4436C8.97817 14.5991 8.52264 14.9102 8.52264 14.4658V11.8104H7.83378V14.7103C7.83378 15.588 8.71151 15.3547 9.1226 14.8991V15.2769H9.81145V11.8104H9.1226V14.4436H9.11149ZM11.678 11.7882C11.278 11.7882 11.0225 12.0882 11.0225 12.0882V10.5771H10.3225V15.2769H11.0225V15.0102C11.0225 15.0102 11.2558 15.3213 11.678 15.3213C12.0447 15.3213 12.3224 14.9991 12.3224 14.5547V12.6326C12.3224 12.1104 12.078 11.7882 11.678 11.7882ZM11.6002 14.4658C11.6002 14.7214 11.4225 14.8436 11.1892 14.7436C11.1261 14.7141 11.0695 14.6726 11.0225 14.6214V12.4659C11.0669 12.4215 11.1225 12.3882 11.1669 12.3548C11.4114 12.2326 11.6002 12.4215 11.6002 12.677V14.4658ZM14.1668 14.2881C14.1668 14.5547 14.0223 14.7325 13.8557 14.7436C13.6779 14.7547 13.5001 14.6103 13.5001 14.2881V13.6325H14.8223V12.7437C14.8257 12.6084 14.8019 12.4737 14.7522 12.3477C14.7026 12.2218 14.6282 12.1071 14.5334 12.0104C14.3423 11.8361 14.0921 11.7408 13.8335 11.7437C13.589 11.7437 13.3335 11.8215 13.1335 11.9771C12.9224 12.1437 12.7891 12.3993 12.7891 12.7437V14.2992C12.7891 14.6103 12.8891 14.8547 13.0446 15.0325C13.2335 15.2324 13.489 15.3435 13.7557 15.3547C14.0779 15.3658 14.4223 15.2324 14.6223 14.9547C14.7445 14.788 14.8223 14.5658 14.8223 14.2992V14.1214H14.1668V14.2881ZM13.5001 12.7437C13.5001 12.5548 13.6112 12.3326 13.8223 12.3326C14.0334 12.3326 14.1668 12.5326 14.1668 12.7437V13.0992H13.5001V12.7437Z" fill="white"></path> <path d="M9.99944 1.54445e-08C8.68623 7.29484e-05 7.38588 0.258803 6.17265 0.761417C4.95942 1.26403 3.85707 2.00069 2.92854 2.92932C2 3.85796 1.26347 4.96039 0.760992 6.17368C0.258512 7.38696 -7.29371e-05 8.68734 1.54318e-08 10.0006C7.2968e-05 11.3138 0.258803 12.6141 0.761417 13.8273C1.26403 15.0406 2.00069 16.1429 2.92932 17.0715C3.85796 18 4.9604 18.7365 6.17368 19.239C7.38696 19.7415 8.68734 20.0001 10.0006 20C12.6527 19.9999 15.1962 18.9461 17.0715 17.0707C18.9467 15.1952 20.0001 12.6516 20 9.99944C19.9999 7.34728 18.9461 4.8038 17.0707 2.92854C15.1952 1.05328 12.6516 -0.000147279 9.99944 1.54445e-08ZM11.7549 3.74424H12.6437V6.72185C12.6437 6.91073 12.7326 6.91073 12.766 6.91073C12.8993 6.91073 13.0993 6.76629 13.1993 6.6663V3.73313H14.0881V7.66624H13.1993V7.32182C13.0771 7.43292 12.9548 7.5218 12.8326 7.58847C12.666 7.67735 12.5104 7.71068 12.3549 7.71068C12.2697 7.71476 12.1847 7.69994 12.1059 7.66729C12.0272 7.63463 11.9566 7.58495 11.8993 7.5218C11.7993 7.39959 11.7549 7.21071 11.7549 6.97739V3.74424ZM8.92173 4.77751C8.92173 4.16644 9.4217 3.66646 10.0328 3.66646C10.6439 3.66646 11.1438 4.16644 11.1438 4.77751V6.6663C11.1438 7.27737 10.6439 7.77735 10.0328 7.77735C9.4217 7.77735 8.92173 7.27737 8.92173 6.6663V4.77751ZM6.61074 2.38876L7.14405 4.3442L7.68846 2.38876H8.69952L7.65513 5.47747V7.66624H6.6663V5.47747L5.59969 2.38876H6.61074ZM15.388 16.3213C14.8214 16.8768 10.0217 16.888 10.0217 16.888C10.0217 16.888 5.23304 16.8768 4.6553 16.3213C4.08866 15.7658 4.08866 12.9993 4.08866 12.9771C4.08866 12.9659 4.08866 10.1994 4.6553 9.6328C5.22193 9.07727 10.0217 9.06616 10.0217 9.06616C10.0217 9.06616 14.8103 9.07727 15.388 9.6328C15.9547 10.1883 15.9658 12.9548 15.9658 12.9771C15.9658 12.9771 15.9658 15.7547 15.388 16.3213Z" fill="white"></path> <path d="M10.0108 7.05519C10.1997 7.05519 10.2886 6.94409 10.2997 6.76632V4.65532C10.2997 4.51089 10.1552 4.38867 10.0219 4.38867C9.88858 4.38867 9.74414 4.49978 9.74414 4.65532V6.76632C9.74414 6.93298 9.82191 7.04408 10.0108 7.05519Z" fill="white"></path> </svg> 